<svg xmlns="http://www.w3.org/2000/svg">
   <symbol id="mobileMenu" viewBox="0 0 24 14">
      <path
         d="M0.571533 0H23.4287V2.28571H0.571533V0ZM6.28582 5.71429H23.4287V8H6.28582V5.71429ZM13.4287 11.4286H23.4287V13.7143H13.4287V11.4286Z" />
   </symbol>
   <symbol id='navigation' viewBox="0 0 18 18">
      <path
         d="M17.0683 1.76033L10.1933 16.7603C10.1357 16.886 10.0382 16.989 9.91588 17.0533C9.79356 17.1177 9.65339 17.1396 9.51726 17.1158C9.38114 17.092 9.25675 17.0237 9.16355 16.9217C9.07034 16.8197 9.01358 16.6896 9.00214 16.5519L8.42089 9.57896L1.44795 8.99771C1.31024 8.98627 1.18019 8.92951 1.07816 8.8363C0.976134 8.7431 0.907871 8.61871 0.884051 8.48258C0.86023 8.34646 0.882196 8.20628 0.946512 8.08397C1.01083 7.96166 1.11387 7.86411 1.23952 7.80658L16.2395 0.93158C16.3555 0.878438 16.4849 0.862048 16.6105 0.884614C16.736 0.907179 16.8516 0.967618 16.9418 1.05781C17.032 1.14801 17.0925 1.26365 17.115 1.38919C17.1376 1.51474 17.1212 1.64418 17.0681 1.76014L17.0683 1.76033Z" />
   </symbol>
   <symbol id="yellowItem" viewBox="0 0 22 22">
      <path
         d="M0.544607 4.47549C0.248039 4.47549 0.00539207 4.23284 0 3.93627V0.544608C0 0.242647 0.242647 0 0.544607 0H3.93627C4.23284 0 4.47549 0.242647 4.47549 0.544608V1.72549H17.5245V0.544608C17.5245 0.248039 17.7672 0.00539216 18.0637 0H21.4554C21.752 0 21.9946 0.242647 22 0.544608V3.93627C22 4.23284 21.7574 4.47549 21.4554 4.47549H20.2745V17.5245H21.4554C21.752 17.5245 21.9946 17.7672 22 18.0637V21.4554C22 21.752 21.7574 21.9946 21.4554 22H18.0637C17.7672 22 17.5245 21.7574 17.5245 21.4554V20.2745H4.47549V21.4554C4.47549 21.752 4.23284 21.9946 3.93627 22H0.544607C0.248039 22 0.00539207 21.7574 0 21.4554V18.0637C0 17.7672 0.242647 17.5245 0.544607 17.5245H1.72549V4.47549H0.544607ZM20.9216 3.39706V1.07843H18.6029V3.39706H20.9216ZM18.6029 20.9216H20.9216V18.6029H18.6029V20.9216ZM4.47549 18.0637V19.1961H17.5245V18.0637C17.5245 17.7672 17.7672 17.5245 18.0637 17.5245H19.1961V4.47549H18.0637C17.7672 4.47549 17.5245 4.23284 17.5245 3.93627V2.80392H4.47549V3.93627C4.47549 4.23284 4.23284 4.47549 3.93627 4.47549H2.80392V17.5245H3.93627C4.23284 17.5245 4.47549 17.7672 4.47549 18.0637ZM1.07843 18.6029V20.9216H3.39706V18.6029H1.07843ZM3.39706 3.39706V1.07843H1.07843V3.39706H3.39706Z" />
   </symbol>
   <symbol id="redItem" viewBox="0 0 24 18">
      <path
         d="M20.8184 17.9286C20.3682 17.9378 19.926 17.809 19.5512 17.5595C19.2723 17.3772 18.9462 17.2802 18.613 17.2802C18.2797 17.2802 17.9537 17.3772 17.6747 17.5595C17.2961 17.8006 16.8566 17.9286 16.4077 17.9286C15.9589 17.9286 15.5194 17.8006 15.1408 17.5595C14.8618 17.377 14.5357 17.2799 14.2023 17.2799C13.869 17.2799 13.5429 17.377 13.2639 17.5595C12.8853 17.8006 12.4458 17.9286 11.9969 17.9286C11.5481 17.9286 11.1086 17.8006 10.7299 17.5595C10.4512 17.3772 10.1253 17.28 9.79216 17.28C9.45904 17.28 9.13315 17.3772 8.85438 17.5595C8.5111 17.7876 8.1105 17.9144 7.69848 17.9253L7.67578 17.2767C7.98012 17.2695 8.27566 17.1732 8.52584 16.9997C8.90435 16.7587 9.34376 16.6307 9.79248 16.6307C10.2412 16.6307 10.6806 16.7587 11.0591 16.9997C11.3381 17.1821 11.6641 17.2792 11.9974 17.2792C12.3307 17.2792 12.6567 17.1821 12.9357 16.9997C13.3143 16.7585 13.754 16.6304 14.203 16.6304C14.6519 16.6304 15.0916 16.7585 15.4703 16.9997C15.7492 17.1821 16.0753 17.2792 16.4085 17.2792C16.7418 17.2792 17.0679 17.1821 17.3468 16.9997C17.7255 16.7588 18.165 16.6308 18.6138 16.6308C19.0626 16.6308 19.5021 16.7588 19.8808 16.9997C20.1604 17.1825 20.4872 17.2799 20.8213 17.2799C21.1554 17.2799 21.4822 17.1825 21.7618 16.9997C22.1362 16.751 22.5776 16.6224 23.027 16.6313V17.2799C22.6924 17.2708 22.3636 17.3686 22.0884 17.5592C21.7127 17.809 21.2695 17.9379 20.8184 17.9286Z" />
      <path
         d="M3.17837 17.9285C2.7283 17.9378 2.28619 17.809 1.91156 17.5594C1.63643 17.3686 1.30761 17.2707 0.972961 17.2798V16.6312C1.42313 16.6218 1.86536 16.7506 2.2401 17.0002C2.51507 17.191 2.84381 17.289 3.17837 17.2798C3.51307 17.289 3.84195 17.1909 4.11696 16.9999C4.4909 16.7504 4.9324 16.6217 5.38182 16.6312C5.82036 16.6213 6.25164 16.7442 6.61912 16.9837L6.29188 17.5435C6.02345 17.3628 5.70525 17.2706 5.38182 17.2798C5.0485 17.2708 4.72102 17.3685 4.44712 17.5587C4.07206 17.809 3.62917 17.9381 3.17837 17.9285Z" />
      <path
         d="M20.8193 15.6579C20.3689 15.6671 19.9264 15.5383 19.5512 15.2888C19.272 15.1064 18.9457 15.0092 18.6122 15.0092C18.2786 15.0092 17.9523 15.1064 17.6731 15.2888C17.2945 15.5298 16.855 15.6578 16.4063 15.6578C15.9575 15.6578 15.518 15.5298 15.1395 15.2888C14.8606 15.1065 14.5347 15.0094 14.2015 15.0094C13.8683 15.0094 13.5424 15.1065 13.2636 15.2888C12.885 15.5299 12.4455 15.6579 11.9967 15.6579C11.548 15.6579 11.1085 15.5299 10.7299 15.2888C10.4511 15.1065 10.1252 15.0094 9.79199 15.0094C9.45882 15.0094 9.13288 15.1065 8.85404 15.2888C8.47942 15.5384 8.0373 15.6672 7.58723 15.6579C7.13716 15.6672 6.69504 15.5384 6.32042 15.2888C6.04555 15.0981 5.71693 15.0001 5.38248 15.0093C5.04813 15.0002 4.71963 15.0981 4.44485 15.2888C4.07083 15.5381 3.62941 15.6669 3.17999 15.6579C2.72982 15.6672 2.28759 15.5384 1.91285 15.2888C1.63743 15.0977 1.30807 14.9997 0.972961 15.0093V14.3606C1.42302 14.3513 1.86513 14.4801 2.23977 14.7297C2.5149 14.9204 2.84372 15.0184 3.17837 15.0093C3.51271 15.0183 3.84121 14.9204 4.11599 14.7297C4.49002 14.4804 4.93143 14.3516 5.38085 14.3606C5.83125 14.351 6.27375 14.4799 6.64864 14.7297C6.92361 14.9205 7.25235 15.0184 7.58691 15.0093C7.92147 15.0184 8.2502 14.9205 8.52518 14.7297C8.90372 14.4886 9.34319 14.3605 9.79199 14.3605C10.2408 14.3605 10.6803 14.4886 11.0588 14.7297C11.3377 14.9121 11.6637 15.0092 11.9969 15.0092C12.3301 15.0092 12.6561 14.9121 12.935 14.7297C13.3136 14.4886 13.753 14.3605 14.2018 14.3605C14.6506 14.3605 15.0901 14.4886 15.4686 14.7297C15.7475 14.9121 16.0735 15.0092 16.4067 15.0092C16.74 15.0092 17.066 14.9121 17.3449 14.7297C17.7238 14.4887 18.1636 14.3607 18.6126 14.3607C19.0617 14.3607 19.5015 14.4887 19.8804 14.7297C20.1598 14.912 20.4862 15.0091 20.8198 15.0091C21.1534 15.0091 21.4798 14.912 21.7592 14.7297C22.1343 14.4803 22.5767 14.3515 23.027 14.3606V15.0093C22.6917 14.9998 22.3622 15.0977 22.0865 15.2888C21.7116 15.5381 21.2695 15.6669 20.8193 15.6579Z" />
      <path
         d="M20.8184 13.388C20.3682 13.3972 19.926 13.2684 19.5512 13.0189C19.2761 12.8282 18.9473 12.7303 18.6126 12.7394C18.367 12.7309 18.1232 12.7833 17.9027 12.8918L17.6166 12.308C17.9263 12.1563 18.2679 12.0814 18.6126 12.0897C19.0633 12.0806 19.506 12.2097 19.8811 12.4598C20.1607 12.6426 20.4875 12.7399 20.8216 12.7399C21.1557 12.7399 21.4825 12.6426 21.7622 12.4598C22.1364 12.2109 22.5777 12.0821 23.027 12.0907V12.7394C22.6924 12.7302 22.3636 12.828 22.0884 13.0186C21.7127 13.2685 21.2695 13.3974 20.8184 13.388Z" />
      <path
         d="M16.4043 13.3879C15.9549 13.3973 15.5134 13.2686 15.1394 13.0191C14.8605 12.8366 14.5344 12.7395 14.201 12.7395C13.8677 12.7395 13.5416 12.8366 13.2626 13.0191C12.884 13.2602 12.4444 13.3882 11.9956 13.3882C11.5468 13.3882 11.1073 13.2602 10.7286 13.0191C10.4497 12.8367 10.1236 12.7396 9.79037 12.7396C9.4571 12.7396 9.13105 12.8367 8.8521 13.0191C8.47753 13.2683 8.03572 13.397 7.58593 13.3879C7.13587 13.3972 6.69376 13.2684 6.31912 13.0188C6.044 12.8281 5.71518 12.7301 5.38053 12.7392C5.0472 12.7302 4.71972 12.828 4.44583 13.0181C4.07112 13.2682 3.62873 13.3972 3.17837 13.3879C2.7283 13.3972 2.28619 13.2684 1.91156 13.0188C1.63643 12.8281 1.30761 12.7301 0.972961 12.7392V12.0906C1.42313 12.0812 1.86536 12.21 2.2401 12.4597C2.51507 12.6504 2.84381 12.7484 3.17837 12.7392C3.51308 12.7484 3.84196 12.6503 4.11696 12.4593C4.4909 12.2098 4.9324 12.0811 5.38183 12.0906C5.83189 12.0813 6.27399 12.2101 6.64864 12.4597C6.92361 12.6504 7.25235 12.7484 7.58691 12.7392C7.92156 12.7483 8.25038 12.6504 8.5255 12.4597C8.90412 12.2186 9.34364 12.0906 9.79248 12.0906C10.2413 12.0906 10.6808 12.2186 11.0594 12.4597C11.3384 12.642 11.6644 12.7391 11.9977 12.7391C12.331 12.7391 12.657 12.642 12.936 12.4597C13.3147 12.2184 13.7543 12.0903 14.2033 12.0903C14.6523 12.0903 15.0919 12.2184 15.4706 12.4597C15.7563 12.6518 16.0952 12.7495 16.4393 12.7389C16.4644 12.7392 16.4894 12.7379 16.5143 12.735L16.6005 13.3778C16.5354 13.3854 16.4699 13.3888 16.4043 13.3879Z" />
      <path
         d="M20.8193 11.1174C20.3689 11.1266 19.9264 10.9978 19.5512 10.7483C19.272 10.5658 18.9457 10.4687 18.6122 10.4687C18.2786 10.4687 17.9523 10.5658 17.6731 10.7483C17.2945 10.9893 16.855 11.1173 16.4063 11.1173C15.9575 11.1173 15.518 10.9893 15.1395 10.7483C14.8606 10.5659 14.5347 10.4688 14.2015 10.4688C13.8683 10.4688 13.5424 10.5659 13.2636 10.7483C12.885 10.9893 12.4455 11.1174 11.9967 11.1174C11.548 11.1174 11.1085 10.9893 10.7299 10.7483C10.4511 10.5659 10.1252 10.4688 9.79199 10.4688C9.45882 10.4688 9.13288 10.5659 8.85404 10.7483C8.47942 10.9979 8.0373 11.1267 7.58723 11.1174C7.13716 11.1267 6.69504 10.9979 6.32042 10.7483C6.04555 10.5575 5.71693 10.4596 5.38248 10.4687C5.04813 10.4596 4.71963 10.5576 4.44485 10.7483C4.07083 10.9976 3.62941 11.1264 3.17999 11.1174C2.72982 11.1267 2.28759 10.9979 1.91285 10.7483C1.63743 10.5572 1.30807 10.4592 0.972961 10.4687V9.82008C1.42302 9.81077 1.86513 9.93958 2.23977 10.1892C2.5149 10.3799 2.84372 10.4778 3.17837 10.4687C3.51271 10.4778 3.84121 10.3799 4.11599 10.1892C4.49002 9.93983 4.93143 9.81103 5.38085 9.82008C5.83125 9.81051 6.27375 9.93933 6.64864 10.1892C6.92361 10.3799 7.25235 10.4779 7.58691 10.4687C7.92147 10.4779 8.2502 10.3799 8.52518 10.1892C8.90372 9.94806 9.34319 9.82 9.79199 9.82C10.2408 9.82 10.6803 9.94806 11.0588 10.1892C11.3377 10.3715 11.6637 10.4687 11.9969 10.4687C12.3301 10.4687 12.6561 10.3715 12.935 10.1892C13.3136 9.94806 13.753 9.82 14.2018 9.82C14.6506 9.82 15.0901 9.94806 15.4686 10.1892C15.7475 10.3715 16.0735 10.4687 16.4067 10.4687C16.74 10.4687 17.066 10.3715 17.3449 10.1892C17.7238 9.94816 18.1636 9.82016 18.6126 9.82016C19.0617 9.82016 19.5015 9.94816 19.8804 10.1892C20.1598 10.3715 20.4862 10.4686 20.8198 10.4686C21.1534 10.4686 21.4798 10.3715 21.7592 10.1892C22.1343 9.93973 22.5767 9.81095 23.027 9.82008V10.4687C22.6917 10.4592 22.3622 10.5572 22.0865 10.7483C21.7116 10.9976 21.2695 11.1264 20.8193 11.1174Z" />
      <path
         d="M16.1977 10.8423L15.5857 10.6276C15.7434 10.1748 15.8077 9.69472 15.775 9.21634C15.7423 8.73795 15.6132 8.27113 15.3954 7.84396L13.1676 3.48147C13.1456 3.43839 13.1335 3.39094 13.1322 3.34258C13.1309 3.29423 13.1405 3.2462 13.1602 3.20201C13.1798 3.15783 13.2092 3.1186 13.246 3.08721C13.2828 3.05583 13.3261 3.03307 13.3729 3.02061L17.8125 1.83682C17.9572 1.79899 18.0811 1.70555 18.1572 1.57684C18.2334 1.44813 18.2556 1.29456 18.2191 1.14954C18.1826 1.00453 18.0903 0.879793 17.9623 0.802481C17.8343 0.725169 17.6809 0.701533 17.5356 0.736716L12.1622 2.02104C12.0473 2.04818 11.9402 2.10141 11.8492 2.17659C11.7582 2.25177 11.6858 2.34688 11.6374 2.45457C11.5891 2.56226 11.5662 2.67963 11.5705 2.79758C11.5749 2.91553 11.6063 3.03091 11.6624 3.13477L13.2581 6.09909C13.2985 6.17443 13.3076 6.26271 13.2833 6.34471C13.259 6.42671 13.2033 6.4958 13.1283 6.53693L11.0689 7.67206L10.7559 7.10385L12.5338 6.12374L11.0919 3.44223C10.9887 3.2508 10.931 3.03822 10.9231 2.82091C10.9153 2.6036 10.9575 2.38739 11.0465 2.18901C11.1355 1.99062 11.269 1.81537 11.4366 1.67681C11.6042 1.53824 11.8014 1.44008 12.013 1.3899L17.3838 0.105905C17.6965 0.0268991 18.0277 0.0753364 18.3047 0.240561C18.5816 0.405786 18.7816 0.674263 18.8606 0.986932C18.9396 1.2996 18.8912 1.63085 18.7259 1.9078C18.5607 2.18476 18.2922 2.38474 17.9796 2.46374L13.9275 3.54374L15.9733 7.5485C16.2309 8.05401 16.3836 8.60642 16.4222 9.17248C16.4607 9.73854 16.3844 10.3065 16.1977 10.8423Z" />
      <path d="M9.62226 7.73377L5.681 9.90552L5.99389 10.4733L9.93515 8.3016L9.62226 7.73377Z" />
      <path
         d="M19.1351 8.68493C18.654 8.68493 18.1838 8.54227 17.7837 8.27499C17.3837 8.00771 17.072 7.62782 16.8879 7.18335C16.7038 6.73888 16.6556 6.2498 16.7494 5.77796C16.8433 5.30611 17.075 4.87269 17.4151 4.53251C17.7553 4.19233 18.1887 3.96066 18.6606 3.86681C19.1324 3.77295 19.6215 3.82112 20.066 4.00523C20.5104 4.18933 20.8903 4.5011 21.1576 4.90111C21.4249 5.30112 21.5676 5.77141 21.5676 6.2525C21.5669 6.89741 21.3104 7.51571 20.8544 7.97173C20.3983 8.42775 19.78 8.68424 19.1351 8.68493ZM19.1351 4.46872C18.7823 4.46872 18.4375 4.57333 18.1441 4.76934C17.8508 4.96534 17.6221 5.24393 17.4871 5.56988C17.3521 5.89582 17.3168 6.25448 17.3856 6.6005C17.4544 6.94652 17.6243 7.26436 17.8738 7.51382C18.1233 7.76329 18.4411 7.93318 18.7871 8.00201C19.1331 8.07084 19.4918 8.03551 19.8178 7.9005C20.1437 7.76549 20.4223 7.53686 20.6183 7.24352C20.8143 6.95018 20.9189 6.6053 20.9189 6.2525C20.9183 5.7796 20.7302 5.32623 20.3958 4.99184C20.0614 4.65744 19.608 4.46932 19.1351 4.46872Z" />
   </symbol>
   <symbol id="blueItem" viewBox="0 0 24 20">
      <path
         d="M4.5 11.125C4.20333 11.125 3.91332 11.213 3.66665 11.3778C3.41997 11.5426 3.22771 11.7769 3.11418 12.051C3.00065 12.3251 2.97094 12.6267 3.02882 12.9176C3.0867 13.2086 3.22956 13.4759 3.43934 13.6857C3.64912 13.8954 3.91639 14.0383 4.20737 14.0962C4.49834 14.1541 4.79994 14.1244 5.07403 14.0108C5.34812 13.8973 5.58238 13.705 5.74721 13.4584C5.91203 13.2117 6 12.9217 6 12.625C6 12.2272 5.84197 11.8456 5.56066 11.5643C5.27936 11.283 4.89783 11.125 4.5 11.125ZM4.5 13.375C4.35167 13.375 4.20666 13.331 4.08332 13.2486C3.95999 13.1662 3.86386 13.0491 3.80709 12.912C3.75033 12.775 3.73547 12.6242 3.76441 12.4787C3.79335 12.3332 3.86478 12.1996 3.96967 12.0947C4.07456 11.9898 4.2082 11.9184 4.35368 11.8894C4.49917 11.8605 4.64997 11.8753 4.78701 11.9321C4.92406 11.9889 5.04119 12.085 5.1236 12.2083C5.20601 12.3317 5.25 12.4767 5.25 12.625C5.25 12.8239 5.17098 13.0147 5.03033 13.1553C4.88968 13.296 4.69891 13.375 4.5 13.375Z" />
      <path
         d="M19.5 11.125C19.2033 11.125 18.9133 11.213 18.6666 11.3778C18.42 11.5426 18.2277 11.7769 18.1142 12.051C18.0006 12.3251 17.9709 12.6267 18.0288 12.9176C18.0867 13.2086 18.2296 13.4759 18.4393 13.6857C18.6491 13.8954 18.9164 14.0383 19.2074 14.0962C19.4983 14.1541 19.7999 14.1244 20.074 14.0108C20.3481 13.8973 20.5824 13.705 20.7472 13.4584C20.912 13.2117 21 12.9217 21 12.625C21 12.2272 20.842 11.8456 20.5607 11.5643C20.2793 11.283 19.8978 11.125 19.5 11.125ZM19.5 13.375C19.3517 13.375 19.2067 13.331 19.0833 13.2486C18.96 13.1662 18.8639 13.0491 18.8071 12.912C18.7503 12.775 18.7355 12.6242 18.7644 12.4787C18.7933 12.3332 18.8648 12.1996 18.9697 12.0947C19.0746 11.9898 19.2082 11.9184 19.3537 11.8894C19.4992 11.8605 19.65 11.8753 19.787 11.9321C19.9241 11.9889 20.0412 12.085 20.1236 12.2083C20.206 12.3317 20.25 12.4767 20.25 12.625C20.25 12.8239 20.171 13.0147 20.0303 13.1553C19.8897 13.296 19.6989 13.375 19.5 13.375Z" />
      <path d="M8.625 13H15.375V13.75H8.625V13Z" />
      <path d="M8.625 11.5H15.375V12.25H8.625V11.5Z" />
      <path d="M10.875 5.875H13.125V6.625H10.875V5.875Z" />
      <path
         d="M23.25 9.25V8.5C23.2491 8.20191 23.1303 7.91627 22.9195 7.70549C22.7087 7.4947 22.4231 7.37589 22.125 7.375H20.64L19.8638 4.6525L19.6312 3.72625C19.5702 3.48304 19.4297 3.26719 19.232 3.11296C19.0343 2.95874 18.7907 2.87499 18.54 2.875H15.375V1.375C15.3744 1.17627 15.2952 0.985849 15.1547 0.845326C15.0142 0.704802 14.8237 0.625594 14.625 0.625H9.375C9.17627 0.625594 8.98585 0.704802 8.84533 0.845326C8.7048 0.985849 8.62559 1.17627 8.625 1.375V2.875H5.46C5.20926 2.87499 4.96569 2.95874 4.76799 3.11296C4.57028 3.26719 4.42976 3.48304 4.36875 3.72625L4.14 4.64875L3.36 7.375H1.875C1.57691 7.37589 1.29127 7.4947 1.08049 7.70549C0.869703 7.91627 0.75089 8.20191 0.75 8.5V9.25C0.750607 9.43997 0.79944 9.62668 0.891922 9.79262C0.984403 9.95856 1.1175 10.0983 1.27875 10.1987C0.93975 10.5471 0.750047 11.0139 0.75 11.5V16C0.750517 16.1573 0.784179 16.3128 0.848792 16.4562C0.913405 16.5996 1.00752 16.7279 1.125 16.8325V18.25C1.12589 18.5481 1.2447 18.8337 1.45549 19.0445C1.66627 19.2553 1.95191 19.3741 2.25 19.375H5.25C5.54809 19.3741 5.83373 19.2553 6.04451 19.0445C6.2553 18.8337 6.37411 18.5481 6.375 18.25V17.125H17.625V18.25C17.6259 18.5481 17.7447 18.8337 17.9555 19.0445C18.1663 19.2553 18.4519 19.3741 18.75 19.375H21.75C22.0481 19.3741 22.3337 19.2553 22.5445 19.0445C22.7553 18.8337 22.8741 18.5481 22.875 18.25V16.8325C22.9925 16.7279 23.0866 16.5996 23.1512 16.4562C23.2158 16.3128 23.2495 16.1573 23.25 16V11.5C23.25 11.0139 23.0602 10.5471 22.7213 10.1987C22.8825 10.0983 23.0156 9.95856 23.1081 9.79262C23.2006 9.62668 23.2494 9.43997 23.25 9.25ZM9.375 1.375H14.625V2.875H9.375V1.375ZM5.09625 3.91C5.11635 3.8287 5.16309 3.75647 5.22901 3.70481C5.29493 3.65316 5.37625 3.62506 5.46 3.625H18.54C18.6237 3.62506 18.7051 3.65316 18.771 3.70481C18.8369 3.75647 18.8836 3.8287 18.9037 3.91L19.02 4.375H4.98L5.09625 3.91ZM4.78125 5.125H19.2188L20.5012 9.625H9.71625C9.62811 9.10094 9.35712 8.62507 8.95138 8.28187C8.54565 7.93867 8.03142 7.75036 7.5 7.75036C6.96858 7.75036 6.45435 7.93867 6.04862 8.28187C5.64288 8.62507 5.37189 9.10094 5.28375 9.625H3.49875L4.78125 5.125ZM8.9475 9.625H6.0525C6.13438 9.30322 6.32114 9.0179 6.58327 8.81412C6.84541 8.61033 7.16797 8.49969 7.5 8.49969C7.83203 8.49969 8.15459 8.61033 8.41673 8.81412C8.67886 9.0179 8.86562 9.30322 8.9475 9.625ZM1.5 8.5C1.5 8.40054 1.53951 8.30516 1.60984 8.23483C1.68016 8.16451 1.77554 8.125 1.875 8.125H3.14625L2.71875 9.625H1.875C1.77554 9.625 1.68016 9.58549 1.60984 9.51517C1.53951 9.44484 1.5 9.34946 1.5 9.25V8.5ZM5.625 18.25C5.625 18.3495 5.58549 18.4448 5.51516 18.5152C5.44484 18.5855 5.34946 18.625 5.25 18.625H2.25C2.15054 18.625 2.05516 18.5855 1.98484 18.5152C1.91451 18.4448 1.875 18.3495 1.875 18.25V17.125H5.625V18.25ZM22.125 18.25C22.125 18.3495 22.0855 18.4448 22.0152 18.5152C21.9448 18.5855 21.8495 18.625 21.75 18.625H18.75C18.6505 18.625 18.5552 18.5855 18.4848 18.5152C18.4145 18.4448 18.375 18.3495 18.375 18.25V17.125H22.125V18.25ZM22.5 16C22.5 16.0995 22.4605 16.1948 22.3902 16.2652C22.3198 16.3355 22.2245 16.375 22.125 16.375H1.875C1.77554 16.375 1.68016 16.3355 1.60984 16.2652C1.53951 16.1948 1.5 16.0995 1.5 16V15.625H22.5V16ZM22.5 14.875H1.5V11.5C1.50089 11.2019 1.6197 10.9163 1.83049 10.7055C2.04127 10.4947 2.32691 10.3759 2.625 10.375H21.375C21.6731 10.3759 21.9587 10.4947 22.1695 10.7055C22.3803 10.9163 22.4991 11.2019 22.5 11.5V14.875ZM22.5 9.25C22.5 9.34946 22.4605 9.44484 22.3902 9.51517C22.3198 9.58549 22.2245 9.625 22.125 9.625H21.2812L20.8538 8.125H22.125C22.2245 8.125 22.3198 8.16451 22.3902 8.23483C22.4605 8.30516 22.5 8.40054 22.5 8.5V9.25Z" />
   </symbol>
   <symbol id="leaf" viewBox="0 0 14 14">
      <g clip-path="url(#clip0_1_199)">
         <path
            d="M13.6544 0.150827C13.2856 0.0428744 4.26251 -0.855475 1.09367 3.42567C-0.309771 5.32223 -0.330853 7.9221 1.02334 11.1525C0.679825 11.8655 0.379099 12.6166 0.134017 13.4091C0.0595057 13.6499 0.194283 13.9052 0.434825 13.9795C0.479669 13.9934 0.525087 14 0.569931 14C0.764399 14 0.944949 13.8744 1.00521 13.6787C3.42043 5.87028 11.2694 2.09267 13.6763 1.13835C13.9105 1.0454 14.2236 0.317405 13.6544 0.150827Z" />
         <path
            d="M2.47186 12.1298C3.77826 12.6778 5.08447 12.9587 6.29916 12.9587C7.39097 12.9587 8.40916 12.7342 9.28657 12.279C11.0524 11.363 12.1315 9.61081 12.407 7.21132C12.6877 4.7659 13.0372 3.23416 13.3288 2.29712C10.7335 3.49428 5.16872 6.5974 2.47186 12.1298Z" />
      </g>
      <defs>
         <clipPath id="clip0_1_199">
            <rect width="14" height="14" />
         </clipPath>
      </defs>
   </symbol>
   <symbol id="map" viewBox="0 0 14 14">
      <path
         d="M13.5009 3.56123e-08C13.4232 -2.92608e-05 13.3466 0.0180173 13.2771 0.0527336L9.48821 1.94771L5.20378 0.0432416C5.19678 0.0402533 5.18878 0.039726 5.18128 0.0367378C5.16201 0.0295308 5.14229 0.0235251 5.12228 0.0187497C5.10239 0.0133885 5.08217 0.00919911 5.06178 0.00624017C5.02118 0.00290038 4.98037 0.00290038 4.93979 0.00624017C4.9194 0.00919911 4.89919 0.0133885 4.8793 0.0187497C4.85929 0.0235251 4.83957 0.0295308 4.82029 0.0367378C4.81279 0.039726 4.80479 0.040224 4.79779 0.0432416L0.297862 2.04322C0.11722 2.12343 0.000825201 2.30255 0.000854498 2.50019V13.5C0.000942387 13.6692 0.0865172 13.8268 0.228341 13.919C0.370195 14.0114 0.549108 14.0257 0.703822 13.957L5.00076 12.047L9.29769 13.957C9.30519 13.96 9.31319 13.957 9.32069 13.9615C9.44174 14.0157 9.5807 14.0126 9.69917 13.953C9.70717 13.9496 9.71616 13.953 9.72416 13.9475L13.7241 11.9476C13.8936 11.8629 14.0007 11.6896 14.0006 11.5V0.500237C14.0008 0.224088 13.777 0.000117221 13.5009 3.56123e-08ZM4.50079 11.1751L1.00083 12.7305V2.8252L4.50079 1.26971V11.1751ZM9.00072 12.7305L5.50076 11.1751V1.26971L9.00072 2.82517V12.7305ZM13.0006 11.1911L10.0007 12.691V2.80918L13.0006 1.3092V11.1911Z" />
   </symbol>
   <symbol id="send" viewBox="0 0 14 14">
      <path
         d="M12.3433 1.24239L6.02577 7.58322C5.95335 7.54126 5.87719 7.50611 5.79827 7.47822L1.62744 6.06656C1.5013 6.03495 1.38935 5.9621 1.30935 5.85958C1.22936 5.75706 1.18591 5.63076 1.18591 5.50072C1.18591 5.37069 1.22936 5.24439 1.30935 5.14187C1.38935 5.03935 1.5013 4.9665 1.62744 4.93489L11.9758 1.25406C12.0434 1.23109 12.1143 1.21927 12.1858 1.21906C12.2392 1.2182 12.2924 1.22608 12.3433 1.24239Z" />
      <path
         d="M12.7459 2.02424L9.06503 12.3842C9.02444 12.505 8.94545 12.6091 8.84012 12.6807C8.73478 12.7524 8.6089 12.7875 8.4817 12.7809C8.35303 12.7868 8.22602 12.7499 8.1205 12.6761C8.01498 12.6022 7.93687 12.4955 7.89836 12.3726L6.51003 8.20174C6.48214 8.12282 6.44699 8.04666 6.40503 7.97424L12.7575 1.65674C12.7934 1.77729 12.7893 1.9062 12.7459 2.02424Z" />
   </symbol>
   <symbol id="building" viewBox="0 0 16 16">
      <path
         d="M0.266665 15.4667H1.86667V6.66667C1.86667 6.5194 1.98607 6.4 2.13333 6.4H5.86667V0.266667C5.86667 0.1194 5.98607 0 6.13333 0H13.0667C13.2139 0 13.3333 0.1194 13.3333 0.266667V15.4667H15.7333C15.8806 15.4667 16 15.5861 16 15.7333C16 15.8806 15.8806 16 15.7333 16H0.266665C0.119399 16 0 15.8806 0 15.7333C0 15.5861 0.119399 15.4667 0.266665 15.4667ZM10.4 15.4667H11.4667V13.0667C11.4667 12.9194 11.3473 12.8 11.2 12.8H10.6667C10.5194 12.8 10.4 12.9194 10.4 13.0667V15.4667ZM9.33333 6.66667V15.4667H9.86667V13.0667C9.86667 12.6248 10.2248 12.2667 10.6667 12.2667H11.2C11.6418 12.2667 12 12.6248 12 13.0667V15.4667H12.8V0.533333H6.4V6.4H9.06667C9.21393 6.4 9.33333 6.5194 9.33333 6.66667ZM2.4 15.4667H8.8V6.93333H2.4V15.4667Z" />
      <path
         d="M7.46665 3.7334H9.06665C9.21391 3.7334 9.33331 3.8528 9.33331 4.00007V5.60007C9.33331 5.74733 9.21391 5.86673 9.06665 5.86673H7.46665C7.31938 5.86673 7.19998 5.74733 7.19998 5.60007V4.00007C7.19998 3.8528 7.31938 3.7334 7.46665 3.7334ZM7.73331 5.3334H8.79998V4.26673H7.73331V5.3334Z" />
      <path
         d="M7.46665 1.06665H9.06665C9.21391 1.06665 9.33331 1.18605 9.33331 1.33332V2.93332C9.33331 3.08058 9.21391 3.19998 9.06665 3.19998H7.46665C7.31938 3.19998 7.19998 3.08058 7.19998 2.93332V1.33332C7.19998 1.18605 7.31938 1.06665 7.46665 1.06665ZM7.73331 2.66665H8.79998V1.59998H7.73331V2.66665Z" />
      <path
         d="M10.1333 3.7334H11.7333C11.8806 3.7334 12 3.8528 12 4.00007V5.60007C12 5.74733 11.8806 5.86673 11.7333 5.86673H10.1333C9.98607 5.86673 9.86667 5.74733 9.86667 5.60007V4.00007C9.86667 3.8528 9.98607 3.7334 10.1333 3.7334ZM10.4 5.3334H11.4667V4.26673H10.4V5.3334Z" />
      <path
         d="M10.1333 1.06665H11.7333C11.8806 1.06665 12 1.18605 12 1.33332V2.93332C12 3.08058 11.8806 3.19998 11.7333 3.19998H10.1333C9.98607 3.19998 9.86667 3.08058 9.86667 2.93332V1.33332C9.86667 1.18605 9.98607 1.06665 10.1333 1.06665ZM10.4 2.66665H11.4667V1.59998H10.4V2.66665Z" />
      <path
         d="M10.1333 6.3999H11.7333C11.8806 6.3999 12 6.5193 12 6.66657V8.26657C12 8.41384 11.8806 8.53324 11.7333 8.53324H10.1333C9.98607 8.53324 9.86667 8.41384 9.86667 8.26657V6.66657C9.86667 6.5193 9.98607 6.3999 10.1333 6.3999ZM10.4 7.9999H11.4667V6.93324H10.4V7.9999Z" />
      <path
         d="M10.1333 9.06665H11.7333C11.8806 9.06665 12 9.18605 12 9.33332V10.9333C12 11.0806 11.8806 11.2 11.7333 11.2H10.1333C9.98607 11.2 9.86667 11.0806 9.86667 10.9333V9.33332C9.86667 9.18605 9.98607 9.06665 10.1333 9.06665ZM10.4 10.6667H11.4667V9.59998H10.4V10.6667Z" />
      <path
         d="M5.06665 12.2666H3.46665C3.31938 12.2666 3.19998 12.1472 3.19998 12V10.4C3.19998 10.2527 3.31938 10.1333 3.46665 10.1333H5.06665C5.21391 10.1333 5.33331 10.2527 5.33331 10.4V12C5.33331 12.1472 5.21391 12.2666 5.06665 12.2666ZM4.79998 10.6666H3.73331V11.7333H4.79998V10.6666Z" />
      <path
         d="M5.06665 9.59989H3.46665C3.31938 9.59989 3.19998 9.48049 3.19998 9.33322V7.73322C3.19998 7.58595 3.31938 7.46655 3.46665 7.46655H5.06665C5.21391 7.46655 5.33331 7.58595 5.33331 7.73322V9.33322C5.33331 9.48049 5.21391 9.59989 5.06665 9.59989ZM4.79998 7.99989H3.73331V9.06655H4.79998V7.99989Z" />
      <path
         d="M5.06665 14.9334H3.46665C3.31938 14.9334 3.19998 14.814 3.19998 14.6667V13.0667C3.19998 12.9194 3.31938 12.8 3.46665 12.8H5.06665C5.21391 12.8 5.33331 12.9194 5.33331 13.0667V14.6667C5.33331 14.814 5.21391 14.9334 5.06665 14.9334ZM4.79998 13.3334H3.73331V14.4H4.79998V13.3334Z" />
      <path
         d="M7.73333 12.2666H6.13333C5.98607 12.2666 5.86667 12.1472 5.86667 12V10.4C5.86667 10.2527 5.98607 10.1333 6.13333 10.1333H7.73333C7.8806 10.1333 8 10.2527 8 10.4V12C8 12.1472 7.8806 12.2666 7.73333 12.2666ZM7.46667 10.6666H6.4V11.7333H7.46667V10.6666Z" />
      <path
         d="M7.73333 9.59989H6.13333C5.98607 9.59989 5.86667 9.48049 5.86667 9.33322V7.73322C5.86667 7.58595 5.98607 7.46655 6.13333 7.46655H7.73333C7.8806 7.46655 8 7.58595 8 7.73322V9.33322C8 9.48049 7.8806 9.59989 7.73333 9.59989ZM7.46667 7.99989H6.4V9.06655H7.46667V7.99989Z" />
      <path
         d="M7.73333 14.9334H6.13333C5.98607 14.9334 5.86667 14.814 5.86667 14.6667V13.0667C5.86667 12.9194 5.98607 12.8 6.13333 12.8H7.73333C7.8806 12.8 8 12.9194 8 13.0667V14.6667C8 14.814 7.8806 14.9334 7.73333 14.9334ZM7.46667 13.3334H6.4V14.4H7.46667V13.3334Z" />
   </symbol>
   <symbol id="like" viewBox="0 0 20 20">
      <path
         d="M18.3644 2.45457C17.33 1.34265 15.8804 0.709981 14.3617 0.707636C12.8417 0.709395 11.3906 1.34173 10.3546 2.45386L10.0015 2.82698L9.64836 2.45386C7.59251 0.241198 4.13215 0.114128 1.91953 2.16998C1.82148 2.26112 1.72679 2.35577 1.63565 2.45386C-0.545218 4.80619 -0.545218 8.44162 1.63565 10.794L9.48255 19.069C9.75403 19.3556 10.2064 19.3679 10.493 19.0964C10.5024 19.0875 10.5115 19.0784 10.5204 19.069L18.3645 10.794C20.5452 8.44187 20.5452 4.80665 18.3644 2.45457ZM17.3302 9.80969H17.3294L10.0015 17.5386L2.67282 9.80969C1.00676 8.01229 1.00676 5.23481 2.67282 3.43741C4.1858 1.79757 6.74172 1.69475 8.38156 3.20773C8.46118 3.28119 8.53778 3.35779 8.61124 3.43741L9.48255 4.35663C9.76969 4.64193 10.2333 4.64193 10.5204 4.35663L11.3917 3.43812C12.9047 1.79828 15.4606 1.69546 17.1005 3.20844C17.1801 3.2819 17.2567 3.35851 17.3302 3.43812C19.0107 5.23837 19.023 8.02092 17.3302 9.80969Z" />
   </symbol>
   <symbol id="facebook" viewBox="0 0 25 24">
      <path
         d="M23.54 0H1.46C0.929 0 0.5 0.429 0.5 0.96V23.04C0.5 23.571 0.929 24 1.46 24H23.54C24.071 24 24.5 23.571 24.5 23.04V0.96C24.5 0.429 24.071 0 23.54 0ZM20.768 7.005H18.851C17.348 7.005 17.057 7.719 17.057 8.769V11.082H20.645L20.177 14.703H17.057V24H13.316V14.706H10.187V11.082H13.316V8.412C13.316 5.313 15.209 3.624 17.975 3.624C19.301 3.624 20.438 3.723 20.771 3.768V7.005H20.768Z"
         fill="#335BF5" />
   </symbol>
   <symbol id="instagram" viewBox="0 0 25 24">
      <path
         d="M12.5018 5.84719C9.09683 5.84719 6.34883 8.59519 6.34883 12.0002C6.34883 15.4052 9.09683 18.1532 12.5018 18.1532C15.9068 18.1532 18.6548 15.4052 18.6548 12.0002C18.6548 8.59519 15.9068 5.84719 12.5018 5.84719ZM12.5018 15.9992C10.2998 15.9992 8.50283 14.2022 8.50283 12.0002C8.50283 9.79819 10.2998 8.00119 12.5018 8.00119C14.7038 8.00119 16.5008 9.79819 16.5008 12.0002C16.5008 14.2022 14.7038 15.9992 12.5018 15.9992ZM18.9068 4.16119C18.1118 4.16119 17.4698 4.80319 17.4698 5.59819C17.4698 6.39319 18.1118 7.03519 18.9068 7.03519C19.7018 7.03519 20.3438 6.39619 20.3438 5.59819C20.3441 5.40942 20.3071 5.22245 20.2349 5.048C20.1628 4.87354 20.057 4.71504 19.9235 4.58155C19.79 4.44807 19.6315 4.34223 19.457 4.2701C19.2826 4.19796 19.0956 4.16096 18.9068 4.16119ZM24.4958 12.0002C24.4958 10.3442 24.5108 8.70319 24.4178 7.05019C24.3248 5.13019 23.8868 3.42619 22.4828 2.02219C21.0758 0.615193 19.3748 0.180193 17.4548 0.0871931C15.7988 -0.00580693 14.1578 0.00919311 12.5048 0.00919311C10.8488 0.00919311 9.20783 -0.00580693 7.55483 0.0871931C5.63483 0.180193 3.93083 0.618193 2.52683 2.02219C1.11983 3.42919 0.684832 5.13019 0.591832 7.05019C0.498832 8.70619 0.513832 10.3472 0.513832 12.0002C0.513832 13.6532 0.498832 15.2972 0.591832 16.9502C0.684832 18.8702 1.12283 20.5742 2.52683 21.9782C3.93383 23.3852 5.63483 23.8202 7.55483 23.9132C9.21083 24.0062 10.8518 23.9912 12.5048 23.9912C14.1608 23.9912 15.8018 24.0062 17.4548 23.9132C19.3748 23.8202 21.0788 23.3822 22.4828 21.9782C23.8898 20.5712 24.3248 18.8702 24.4178 16.9502C24.5138 15.2972 24.4958 13.6562 24.4958 12.0002ZM21.8558 19.0742C21.6368 19.6202 21.3728 20.0282 20.9498 20.4482C20.5268 20.8712 20.1218 21.1352 19.5758 21.3542C17.9978 21.9812 14.2508 21.8402 12.5018 21.8402C10.7528 21.8402 7.00283 21.9812 5.42483 21.3572C4.87883 21.1382 4.47083 20.8742 4.05083 20.4512C3.62783 20.0282 3.36383 19.6232 3.14483 19.0772C2.52083 17.4962 2.66183 13.7492 2.66183 12.0002C2.66183 10.2512 2.52083 6.50119 3.14483 4.92319C3.36383 4.37719 3.62783 3.96919 4.05083 3.54919C4.47383 3.12919 4.87883 2.86219 5.42483 2.64319C7.00283 2.01919 10.7528 2.16019 12.5018 2.16019C14.2508 2.16019 18.0008 2.01919 19.5788 2.64319C20.1248 2.86219 20.5328 3.12619 20.9528 3.54919C21.3758 3.97219 21.6398 4.37719 21.8588 4.92319C22.4828 6.50119 22.3418 10.2512 22.3418 12.0002C22.3418 13.7492 22.4828 17.4962 21.8558 19.0742Z"
         fill="#E61F5A" />
   </symbol>
   <symbol id="twitter" viewBox="0 0 25 20">
      <path
         d="M24.5004 2.46548C23.6188 2.85141 22.6594 3.12917 21.6711 3.23735C22.6971 2.61879 23.4655 1.64156 23.832 0.489007C22.8692 1.07022 21.8145 1.47778 20.7146 1.6936C20.2549 1.19488 19.6989 0.797581 19.0813 0.526453C18.4636 0.255325 17.7976 0.116179 17.1247 0.117688C14.402 0.117688 12.2123 2.3573 12.2123 5.10564C12.2123 5.49158 12.2584 5.87752 12.3333 6.24884C8.2565 6.03248 4.62048 4.05601 2.2032 1.0299C1.76274 1.79335 1.53193 2.66261 1.53477 3.54727C1.53477 5.27814 2.402 6.80435 3.72444 7.70195C2.94511 7.6708 2.18402 7.45342 1.50308 7.06749V7.12889C1.50308 9.5527 3.19143 11.5613 5.44161 12.0233C5.01912 12.1347 4.58449 12.1916 4.14797 12.1929C3.82817 12.1929 3.52565 12.1607 3.22024 12.1168C3.84257 14.0933 5.65482 15.5289 7.8128 15.5757C6.12444 16.9177 4.00968 17.7071 1.7134 17.7071C1.3014 17.7071 0.921085 17.6925 0.526367 17.6457C2.70452 19.0637 5.28891 19.8824 8.0721 19.8824C17.1074 19.8824 22.0514 12.2864 22.0514 5.69332C22.0514 5.47696 22.0514 5.2606 22.037 5.04424C22.9936 4.33377 23.832 3.45371 24.5004 2.46548Z"
         fill="#21A6DF" />
   </symbol>
   <symbol id="youtube" viewBox="0 0 25 18">
      <path
         d="M23.9699 2.9313C23.8335 2.39833 23.5663 1.9124 23.1951 1.52212C22.824 1.13185 22.3619 0.850924 21.855 0.707468C19.9884 0.17627 12.4879 0.17627 12.4879 0.17627C12.4879 0.17627 4.98729 0.17627 3.12071 0.707468C2.61385 0.850924 2.15172 1.13185 1.78057 1.52212C1.40941 1.9124 1.14225 2.39833 1.00582 2.9313C0.657288 4.93298 0.488155 6.96464 0.500644 8.99956C0.488155 11.0345 0.657288 13.0661 1.00582 15.0678C1.14225 15.6008 1.40941 16.0867 1.78057 16.477C2.15172 16.8673 2.61385 17.1482 3.12071 17.2917C4.98729 17.8229 12.4879 17.8229 12.4879 17.8229C12.4879 17.8229 19.9884 17.8229 21.855 17.2917C22.3619 17.1482 22.824 16.8673 23.1951 16.477C23.5663 16.0867 23.8335 15.6008 23.9699 15.0678C24.3184 13.0661 24.4876 11.0345 24.4751 8.99956C24.4876 6.96464 24.3184 4.93298 23.9699 2.9313ZM10.0904 12.781V5.21815L16.3152 8.99956L10.0904 12.781Z"
         fill="#E42F08" />
   </symbol>
   <symbol id="googleIcon" viewBox="0 0 41 39">
      <g clip-path="url(#clip0_2_33)">
      <path d="M23.5476 19.4522L3.27283 37.4788C2.32339 36.8797 1.75969 35.8832 1.76966 34.8214V4.08296C1.75969 3.0212 2.32339 2.02465 3.27283 1.42554L23.5476 19.4522Z" fill="#2196F3"/>
      <path d="M30.642 13.1557L23.5476 19.4523L3.27286 1.42566C3.34925 1.371 3.42882 1.32014 3.51114 1.27333C4.58268 0.673654 5.92113 0.654295 7.01252 1.22255L30.642 13.1557Z" fill="#4CAF50"/>
      <path d="M39.2396 19.4524C39.2528 20.651 38.5474 21.7582 37.4064 22.3299L30.642 25.749L23.5477 19.4524L30.642 13.1558L37.4064 16.5749C38.5474 17.1466 39.2528 18.2538 39.2396 19.4524Z" fill="#F0BB1F"/>
      <path d="M30.642 25.749L7.01252 37.6822C5.91872 38.2416 4.58535 38.2222 3.51114 37.6314C3.42882 37.5846 3.34925 37.5337 3.27286 37.479L23.5477 19.4524L30.642 25.749Z" fill="#F15A2B"/>
      </g>
      <defs>
      <clipPath id="clip0_2_33">
      <rect width="40.3738" height="37.2789" fill="white" transform="translate(0.317749 0.80957)"/>
      </clipPath>
      </defs>
   </symbol>
   <symbol id="googleText" viewBox="0 0 109 28">
      <path d="M11.9456 4.90581H6.27716V6.99343H9.29712C8.89338 7.9925 7.90826 8.60388 6.40635 8.60388C4.21002 8.60388 2.85346 7.30657 2.85346 5.5321C2.85346 3.69797 4.27462 2.40067 6.18026 2.40067C7.45607 2.40067 8.47349 2.93748 8.94183 3.62342L11.1382 2.46031C10.1853 1.05863 8.36045 0.0744629 6.19641 0.0744629C2.86961 0.0744629 0.269531 2.49014 0.269531 5.51718C0.269531 8.51441 2.82116 10.9301 6.37405 10.9301C9.53936 10.9301 11.9456 8.99158 11.9456 5.8005V4.90581Z" fill="white"/>
      <path d="M15.1788 8.42494V6.57591H19.2162V4.30935H15.1788V2.57961H19.62V0.283225H12.5949V10.7213H19.7007V8.42494H15.1788Z" fill="white"/>
      <path d="M27.9414 0.283225H19.5436V2.57961H22.4505V10.7213H25.0345V2.57961H27.9414V0.283225Z" fill="white"/>
      <path d="M31.4949 0.283225V10.7213H34.0788V0.283225H31.4949Z" fill="white"/>
      <path d="M42.804 0.283225H34.4062V2.57961H37.3132V10.7213H39.8971V2.57961H42.804V0.283225Z" fill="white"/>
      <path d="M51.7515 10.9301C54.9975 10.9301 57.6299 8.57406 57.6299 5.50227C57.6299 2.43049 54.9975 0.0744629 51.7515 0.0744629C48.5054 0.0744629 45.873 2.43049 45.873 5.50227C45.873 8.57406 48.5054 10.9301 51.7515 10.9301ZM51.7515 8.60388C49.9104 8.60388 48.457 7.36622 48.457 5.50227C48.457 3.63833 49.9104 2.40067 51.7515 2.40067C53.5925 2.40067 55.046 3.63833 55.046 5.50227C55.046 7.36622 53.5925 8.60388 51.7515 8.60388Z" fill="white"/>
      <path d="M64.5756 0.283225V5.94962L60.2152 0.283225H58.2773V10.7213H60.8612V5.05493L65.2216 10.7213H67.1595V0.283225H64.5756Z" fill="white"/>
      <path d="M11.9456 22.6357V23.0383C11.9456 24.3405 11.445 25.439 10.4437 26.3337C9.44247 27.2185 8.12359 27.6609 6.4871 27.6609C4.76448 27.6609 3.34333 27.1439 2.22362 26.1101C1.10392 25.0662 0.544073 23.7888 0.544073 22.2778C0.544073 20.7667 1.09854 19.4943 2.20748 18.4604C3.31641 17.4166 4.72142 16.8947 6.4225 16.8947C7.45607 16.8947 8.40351 17.1234 9.26482 17.5806C10.1369 18.0379 10.8098 18.6493 11.2835 19.4148L10.5245 19.8323C10.1477 19.1762 9.58781 18.6493 8.84493 18.2517C8.11282 17.854 7.30534 17.6552 6.4225 17.6552C4.95828 17.6552 3.75245 18.1025 2.80501 18.9972C1.86834 19.882 1.4 20.9755 1.4 22.2778C1.4 23.5801 1.87372 24.6785 2.82116 25.5732C3.7686 26.458 4.99058 26.9004 6.4871 26.9004C7.81136 26.9004 8.88262 26.5673 9.70086 25.9013C10.5191 25.2352 10.9767 24.3952 11.0736 23.3812H6.27716V22.6357H11.9456Z" fill="white"/>
      <path d="M23.409 26.0951C22.2786 27.139 20.9005 27.6609 19.2748 27.6609C17.649 27.6609 16.2709 27.139 15.1405 26.0951C14.01 25.0414 13.4448 23.7689 13.4448 22.2778C13.4448 20.7866 14.01 19.5191 15.1405 18.4753C16.2709 17.4216 17.649 16.8947 19.2748 16.8947C20.9005 16.8947 22.2786 17.4216 23.409 18.4753C24.5395 19.5191 25.1047 20.7866 25.1047 22.2778C25.1047 23.7689 24.5395 25.0414 23.409 26.0951ZM15.738 25.5583C16.707 26.453 17.8859 26.9004 19.2748 26.9004C20.6636 26.9004 21.8371 26.453 22.7954 25.5583C23.7643 24.6537 24.2488 23.5602 24.2488 22.2778C24.2488 20.9954 23.7643 19.9068 22.7954 19.0121C21.8371 18.1075 20.6636 17.6552 19.2748 17.6552C17.8859 17.6552 16.707 18.1075 15.738 19.0121C14.7798 19.9068 14.3007 20.9954 14.3007 22.2778C14.3007 23.5602 14.7798 24.6537 15.738 25.5583Z" fill="white"/>
      <path d="M36.5936 26.0951C35.4631 27.139 34.0851 27.6609 32.4593 27.6609C30.8336 27.6609 29.4555 27.139 28.3251 26.0951C27.1946 25.0414 26.6294 23.7689 26.6294 22.2778C26.6294 20.7866 27.1946 19.5191 28.3251 18.4753C29.4555 17.4216 30.8336 16.8947 32.4593 16.8947C34.0851 16.8947 35.4631 17.4216 36.5936 18.4753C37.7241 19.5191 38.2893 20.7866 38.2893 22.2778C38.2893 23.7689 37.7241 25.0414 36.5936 26.0951ZM28.9226 25.5583C29.8916 26.453 31.0705 26.9004 32.4593 26.9004C33.8482 26.9004 35.0217 26.453 35.9799 25.5583C36.9489 24.6537 37.4334 23.5602 37.4334 22.2778C37.4334 20.9954 36.9489 19.9068 35.9799 19.0121C35.0217 18.1075 33.8482 17.6552 32.4593 17.6552C31.0705 17.6552 29.8916 18.1075 28.9226 19.0121C27.9644 19.9068 27.4853 20.9954 27.4853 22.2778C27.4853 23.5602 27.9644 24.6537 28.9226 25.5583Z" fill="white"/>
      <path d="M51.2155 22.6357V23.0383C51.2155 24.3405 50.7149 25.439 49.7136 26.3337C48.7123 27.2185 47.3934 27.6609 45.757 27.6609C44.0343 27.6609 42.6132 27.1439 41.4935 26.1101C40.3738 25.0662 39.8139 23.7888 39.8139 22.2778C39.8139 20.7667 40.3684 19.4943 41.4773 18.4604C42.5863 17.4166 43.9913 16.8947 45.6924 16.8947C46.7259 16.8947 47.6734 17.1234 48.5347 17.5806C49.4068 18.0379 50.0797 18.6493 50.5534 19.4148L49.7943 19.8323C49.4175 19.1762 48.8577 18.6493 48.1148 18.2517C47.3827 17.854 46.5752 17.6552 45.6924 17.6552C44.2281 17.6552 43.0223 18.1025 42.0749 18.9972C41.1382 19.882 40.6699 20.9755 40.6699 22.2778C40.6699 23.5801 41.1436 24.6785 42.091 25.5732C43.0385 26.458 44.2604 26.9004 45.757 26.9004C47.0812 26.9004 48.1525 26.5673 48.9707 25.9013C49.789 25.2352 50.2465 24.3952 50.3434 23.3812H45.547V22.6357H51.2155Z" fill="white"/>
      <path d="M54.2165 26.7513H59.5459V27.4968H53.3606V17.0587H54.2165V26.7513Z" fill="white"/>
      <path d="M62.1809 26.7513H67.8332V27.4968H61.325V17.0587H67.7525V17.8043H62.1809V21.8603H67.3488V22.6058H62.1809V26.7513Z" fill="white"/>
      <path d="M78.085 17.0587C79.0971 17.0587 79.9369 17.3669 80.6044 17.9833C81.2719 18.5996 81.6056 19.37 81.6056 20.2945C81.6056 21.2191 81.2719 21.9895 80.6044 22.6058C79.9369 23.2122 79.0971 23.5154 78.085 23.5154H75.0974V27.4968H74.2415V17.0587H78.085ZM78.085 22.7699C78.8602 22.7699 79.4954 22.5363 79.9907 22.069C80.4967 21.6018 80.7497 21.0103 80.7497 20.2945C80.7497 19.5688 80.4967 18.9724 79.9907 18.5052C79.4954 18.0379 78.8602 17.8043 78.085 17.8043H75.0974V22.7699H78.085Z" fill="white"/>
      <path d="M84.5758 26.7513H89.9051V27.4968H83.7198V17.0587H84.5758V26.7513Z" fill="white"/>
      <path d="M99.6061 27.4968L98.5079 24.8426H92.8394L91.7412 27.4968H90.8369L95.2295 17.0587H96.1339L100.51 27.4968H99.6061ZM93.1624 24.097H98.201L95.6817 18.028L93.1624 24.097Z" fill="white"/>
      <path d="M108.554 17.0587L104.436 23.2023V27.4968H103.58V23.2023L99.4617 17.0587H100.431L104.016 22.4418L107.585 17.0587H108.554Z" fill="white"/>
   </symbol>
   <symbol id="appleIcon" viewBox="0 0 27 31">
      <path d="M9.11664 30.4962C4.30957 30.4706 0.333252 21.41 0.333252 16.7956C0.333252 9.25808 6.45714 7.6079 8.81725 7.6079C9.88084 7.6079 11.0165 7.99356 12.0183 8.33484C12.7187 8.5729 13.4432 8.81865 13.8461 8.81865C14.0873 8.81865 14.6556 8.6096 15.1574 8.42617C16.2275 8.03282 17.5591 7.54395 19.1097 7.54395C19.1124 7.54395 19.1162 7.54395 19.1189 7.54395C20.2767 7.54395 23.7874 7.77857 25.898 10.7052L26.3924 11.3912L25.6808 11.8869C24.6644 12.5951 22.8097 13.887 22.8097 16.4459C22.8097 19.4766 24.9101 20.6421 25.9192 21.2027C26.3647 21.4501 26.8257 21.7053 26.8257 22.2633C26.8257 22.6276 23.6765 30.451 19.1032 30.451C17.9841 30.451 17.1931 30.1404 16.4954 29.8666C15.7894 29.5892 15.1804 29.3504 14.1741 29.3504C13.664 29.3504 13.019 29.573 12.3361 29.8094C11.4029 30.131 10.3466 30.4962 9.14806 30.4962H9.11664Z" fill="white"/>
      <path d="M19.5942 0.673584C19.7133 4.6389 16.642 7.38985 13.5744 7.21731C13.0689 4.05286 16.6416 0.673584 19.5942 0.673584Z" fill="white"/>
   </symbol>
   <symbol id="appleText" viewBox="0 0 111 34">
      <path d="M6.92041 8.99343H9.04003L6.15734 1.16486H3.68646L0.803772 8.99343H2.9234L3.34732 7.76322H6.49648L6.92041 8.99343ZM3.92871 6.08567L4.9219 3.21147L5.9151 6.08567H3.92871Z" fill="white"/>
      <path d="M13.3296 3.40159L12.07 6.94682L10.8103 3.40159H8.79968L11.0404 8.99343H13.0995L15.3402 3.40159H13.3296Z" fill="white"/>
      <path d="M20.167 3.40159V3.92722C19.7673 3.50224 19.1738 3.24502 18.3623 3.24502C16.7756 3.24502 15.4675 4.53114 15.4675 6.19751C15.4675 7.86388 16.7756 9.15 18.3623 9.15C19.1738 9.15 19.7673 8.89277 20.167 8.46779V8.99343H21.9839V3.40159H20.167ZM18.7257 7.56192C17.8899 7.56192 17.2843 7.03628 17.2843 6.19751C17.2843 5.35873 17.8899 4.8331 18.7257 4.8331C19.5614 4.8331 20.167 5.35873 20.167 6.19751C20.167 7.03628 19.5614 7.56192 18.7257 7.56192Z" fill="white"/>
      <path d="M23.3168 8.99343H25.1336V0.829346H23.3168V8.99343Z" fill="white"/>
      <path d="M27.3715 2.90951C27.965 2.90951 28.4616 2.45098 28.4616 1.90298C28.4616 1.35498 27.965 0.896448 27.3715 0.896448C26.778 0.896448 26.2814 1.35498 26.2814 1.90298C26.2814 2.45098 26.778 2.90951 27.3715 2.90951ZM26.4631 8.99343H28.2799V3.40159H26.4631V8.99343Z" fill="white"/>
      <path d="M33.2309 3.24502C32.4194 3.24502 31.8259 3.50224 31.4262 3.92722V1.16486H29.6094V8.99343H31.4262V8.46779C31.8259 8.89277 32.4194 9.15 33.2309 9.15C34.8176 9.15 36.1257 7.86388 36.1257 6.19751C36.1257 4.53114 34.8176 3.24502 33.2309 3.24502ZM32.8676 7.56192C32.0318 7.56192 31.4262 7.03628 31.4262 6.19751C31.4262 5.35873 32.0318 4.8331 32.8676 4.8331C33.7033 4.8331 34.3089 5.35873 34.3089 6.19751C34.3089 7.03628 33.7033 7.56192 32.8676 7.56192Z" fill="white"/>
      <path d="M37.1558 8.99343H38.9727V0.829346H37.1558V8.99343Z" fill="white"/>
      <path d="M41.9252 6.86853H46.225C46.2734 6.65604 46.2977 6.43237 46.2977 6.19751C46.2977 4.50877 44.9896 3.24502 43.2212 3.24502C41.3075 3.24502 39.9994 4.53114 39.9994 6.19751C39.9994 7.86388 41.2832 9.15 43.3544 9.15C44.5051 9.15 45.4014 8.75857 45.9949 7.99808L44.5414 7.22641C44.2992 7.47245 43.8752 7.65139 43.3786 7.65139C42.7125 7.65139 42.1553 7.45008 41.9252 6.86853ZM41.8888 5.61596C42.0584 5.04559 42.5187 4.73245 43.2091 4.73245C43.7541 4.73245 44.2992 4.9673 44.493 5.61596H41.8888Z" fill="white"/>
      <path d="M53.2631 9.15C55.0436 9.15 56.4728 7.86388 56.4728 6.19751C56.4728 4.53114 55.0436 3.24502 53.2631 3.24502C51.4826 3.24502 50.0534 4.53114 50.0534 6.19751C50.0534 7.86388 51.4826 9.15 53.2631 9.15ZM53.2631 7.51718C52.4758 7.51718 51.8702 6.99155 51.8702 6.19751C51.8702 5.40347 52.4758 4.87784 53.2631 4.87784C54.0504 4.87784 54.656 5.40347 54.656 6.19751C54.656 6.99155 54.0504 7.51718 53.2631 7.51718Z" fill="white"/>
      <path d="M61.0493 3.24502C60.2499 3.24502 59.6443 3.51343 59.3173 3.92722V3.40159H57.5005V8.99343H59.3173V5.94028C59.3173 5.14624 59.7775 4.78837 60.4437 4.78837C61.0251 4.78837 61.4975 5.11269 61.4975 5.80608V8.99343H63.3143V5.56004C63.3143 4.05024 62.2726 3.24502 61.0493 3.24502Z" fill="white"/>
      <path d="M71.1388 5.01204V3.40159H69.8913V1.83588L68.0745 2.33914V3.40159H67.1055V5.01204H68.0745V6.99155C68.0745 8.55726 68.7649 9.2171 71.1388 8.99343V7.47245C70.3394 7.51718 69.8913 7.47245 69.8913 6.99155V5.01204H71.1388Z" fill="white"/>
      <path d="M75.7164 3.24502C74.917 3.24502 74.3114 3.51343 73.9843 3.92722V1.16486H72.1675V8.99343H73.9843V5.94028C73.9843 5.14624 74.4446 4.78837 75.1108 4.78837C75.6921 4.78837 76.1645 5.11269 76.1645 5.80608V8.99343H77.9813V5.56004C77.9813 4.05024 76.9397 3.24502 75.7164 3.24502Z" fill="white"/>
      <path d="M80.852 6.86853H85.1518C85.2003 6.65604 85.2245 6.43237 85.2245 6.19751C85.2245 4.50877 83.9164 3.24502 82.148 3.24502C80.2343 3.24502 78.9262 4.53114 78.9262 6.19751C78.9262 7.86388 80.2101 9.15 82.2812 9.15C83.4319 9.15 84.3282 8.75857 84.9217 7.99808L83.4682 7.22641C83.226 7.47245 82.8021 7.65139 82.3055 7.65139C81.6393 7.65139 81.0821 7.45008 80.852 6.86853ZM80.8157 5.61596C80.9853 5.04559 81.4455 4.73245 82.1359 4.73245C82.681 4.73245 83.226 4.9673 83.4198 5.61596H80.8157Z" fill="white"/>
      <path d="M10.9982 29.4968H14.5309L9.72639 16.4492H5.60826L0.803772 29.4968H4.33648L5.04302 27.4465H10.2916L10.9982 29.4968ZM6.012 24.6506L7.66732 19.8602L9.32265 24.6506H6.012Z" fill="white"/>
      <path d="M21.6707 19.9161C20.3182 19.9161 19.3291 20.3449 18.6629 21.0532V20.1771H15.6348V33.2247H18.6629V28.6208C19.3291 29.3291 20.3182 29.7578 21.6707 29.7578C24.3152 29.7578 26.4954 27.6142 26.4954 24.837C26.4954 22.0597 24.3152 19.9161 21.6707 19.9161ZM21.0651 27.111C19.6722 27.111 18.6629 26.2349 18.6629 24.837C18.6629 23.439 19.6722 22.563 21.0651 22.563C22.458 22.563 23.4674 23.439 23.4674 24.837C23.4674 26.2349 22.458 27.111 21.0651 27.111Z" fill="white"/>
      <path d="M34.2481 19.9161C32.8956 19.9161 31.9064 20.3449 31.2403 21.0532V20.1771H28.2122V33.2247H31.2403V28.6208C31.9064 29.3291 32.8956 29.7578 34.2481 29.7578C36.8926 29.7578 39.0728 27.6142 39.0728 24.837C39.0728 22.0597 36.8926 19.9161 34.2481 19.9161ZM33.6425 27.111C32.2496 27.111 31.2403 26.2349 31.2403 24.837C31.2403 23.439 32.2496 22.563 33.6425 22.563C35.0354 22.563 36.0448 23.439 36.0448 24.837C36.0448 26.2349 35.0354 27.111 33.6425 27.111Z" fill="white"/>
      <path d="M40.7896 29.4968H43.8177V15.89H40.7896V29.4968Z" fill="white"/>
      <path d="M48.7385 25.9553H55.9049C55.9857 25.6012 56.026 25.2284 56.026 24.837C56.026 22.0224 53.8458 19.9161 50.8985 19.9161C47.709 19.9161 45.5288 22.0597 45.5288 24.837C45.5288 27.6142 47.6686 29.7578 51.1206 29.7578C53.0384 29.7578 54.5322 29.1054 55.5214 27.8379L53.0989 26.5518C52.6952 26.9619 51.9886 27.2601 51.161 27.2601C50.0507 27.2601 49.1221 26.9246 48.7385 25.9553ZM48.678 23.8677C48.9606 22.9171 49.7277 22.3952 50.8784 22.3952C51.7868 22.3952 52.6952 22.7866 53.0182 23.8677H48.678Z" fill="white"/>
      <path d="M67.8369 29.7578C70.9054 29.7578 73.0855 28.2666 73.0855 25.7503C73.0855 22.9917 70.6833 22.302 68.5435 21.7055C66.3431 21.0904 65.9999 20.6804 65.9999 20.0839C65.9999 19.562 66.5046 19.096 67.514 19.096C68.8059 19.096 69.4721 19.6738 69.9566 20.6058L72.6818 19.1333C71.6523 17.2134 69.8354 16.1883 67.514 16.1883C65.0713 16.1883 62.77 17.6421 62.77 20.1585C62.77 22.6561 64.8291 23.5881 66.9285 24.1287C69.0482 24.6692 69.8556 24.9861 69.8556 25.7876C69.8556 26.2908 69.4721 26.85 67.9379 26.85C66.3431 26.85 65.4751 26.1231 64.9704 25.042L62.1846 26.5332C62.9719 28.453 64.8695 29.7578 67.8369 29.7578Z" fill="white"/>
      <path d="M80.2178 22.8612V20.1771H78.1386V17.5676L75.1105 18.4064V20.1771H73.4956V22.8612H75.1105V26.1604C75.1105 28.7699 76.2612 29.8696 80.2178 29.4968V26.9619C78.8855 27.0364 78.1386 26.9619 78.1386 26.1604V22.8612H80.2178Z" fill="white"/>
      <path d="M86.58 29.7578C89.5475 29.7578 91.9296 27.6142 91.9296 24.837C91.9296 22.0597 89.5475 19.9161 86.58 19.9161C83.6125 19.9161 81.2305 22.0597 81.2305 24.837C81.2305 27.6142 83.6125 29.7578 86.58 29.7578ZM86.58 27.0364C85.2679 27.0364 84.2585 26.1604 84.2585 24.837C84.2585 23.5136 85.2679 22.6375 86.58 22.6375C87.8922 22.6375 88.9015 23.5136 88.9015 24.837C88.9015 26.1604 87.8922 27.0364 86.58 27.0364Z" fill="white"/>
      <path d="M96.6703 21.836V20.1771H93.6423V29.4968H96.6703V25.2843C96.6703 23.439 98.4468 22.973 99.6984 23.1594V19.9907C98.4266 19.9907 97.0741 20.5872 96.6703 21.836Z" fill="white"/>
      <path d="M103.523 25.9553H110.69C110.77 25.6012 110.811 25.2284 110.811 24.837C110.811 22.0224 108.63 19.9161 105.683 19.9161C102.494 19.9161 100.313 22.0597 100.313 24.837C100.313 27.6142 102.453 29.7578 105.905 29.7578C107.823 29.7578 109.317 29.1054 110.306 27.8379L107.884 26.5518C107.48 26.9619 106.773 27.2601 105.946 27.2601C104.835 27.2601 103.907 26.9246 103.523 25.9553ZM103.463 23.8677C103.745 22.9171 104.512 22.3952 105.663 22.3952C106.571 22.3952 107.48 22.7866 107.803 23.8677H103.463Z" fill="white"/>
   </symbol>
</svg>